C:\Users\r0593348\3dpredictsim\Results\Batchsim_tmt_linear\Pog_s1_tmt_aCst_d02_k800_ig24_act_GRF.mot
nRows=22
nColumns=19

name C:\Users\r0593348\3dpredictsim\Results\Batchsim_tmt_linear\Pog_s1_tmt_aCst_d02_k800_ig24_act_GRF.mot
datacolumns 19
datarows 22
range 0.6294503932 0.8938195583
endheader
time 	ground_force_vx	ground_force_vy	ground_force_vz	ground_force_px	ground_force_py	ground_force_pz	1_ground_force_vx	1_ground_force_vy	1_ground_force_vz	1_ground_force_px	1_ground_force_py	1_ground_force_pz	ground_torque_x	ground_torque_y	ground_torque_z	1_ground_torque_x	1_ground_torque_y	1_ground_torque_z
        0.6294503932	      106.5560557937	      428.3679762330	        0.1908988137	        0.4220846045	        0.0000000000	        0.0331338568	      -35.7747918770	       28.1737304431	       -8.9057085544	        0.9876022861	        0.0000000000	       -0.0517734002	        0.0000000000	        0.0000000000	        0.0000000000	        0.0000000000	        0.0000000000	        0.0000000000	
        0.6420394010	       71.8309547186	      327.3633666137	        6.3589334896	        0.4301069048	        0.0000000000	        0.0299908831	     -110.4321833911	      114.1016927209	      -41.2418767019	        0.9955949850	        0.0000000000	       -0.0498657559	        0.0000000000	        0.0000000000	        0.0000000000	        0.0000000000	        0.0000000000	        0.0000000000	
        0.6546284089	       40.1114971511	      223.8280935495	       12.3611930409	        0.4432743997	        0.0000000000	        0.0243163271	      -56.6603366939	      309.3616340220	      -14.1174860241	        1.0009574810	        0.0000000000	       -0.0479529411	        0.0000000000	        0.0000000000	        0.0000000000	        0.0000000000	        0.0000000000	        0.0000000000	
        0.6672174167	       25.8645072998	      176.7638507475	       12.7921156531	        0.4484413674	        0.0000000000	        0.0217183434	      -59.7907393172	      526.5233089941	        6.3461644621	        1.0039524838	        0.0000000000	       -0.0477851296	        0.0000000000	        0.0000000000	        0.0000000000	        0.0000000000	        0.0000000000	        0.0000000000	
        0.6798064246	       20.0629270434	      129.7047243536	       15.9217884628	        0.4487914199	        0.0000000000	        0.0220568614	     -109.7931817763	      746.0036417664	       15.1018653879	        1.0125854286	        0.0000000000	       -0.0497134528	        0.0000000000	        0.0000000000	        0.0000000000	        0.0000000000	        0.0000000000	        0.0000000000	
        0.6923954325	        6.9433949983	       73.1566854501	       15.8546401372	        0.4487281501	        0.0000000000	        0.0225093573	     -145.6239705327	      890.9612114079	       20.5640997084	        1.0209199008	        0.0000000000	       -0.0516328826	        0.0000000000	        0.0000000000	        0.0000000000	        0.0000000000	        0.0000000000	        0.0000000000	
        0.7049844403	       -7.3361049994	       13.2020231995	        3.8630980826	        0.4451130305	        0.0000000000	        0.0223380295	     -151.2835187606	      917.2599552316	       21.2941170253	        1.0262672698	        0.0000000000	       -0.0527025035	        0.0000000000	        0.0000000000	        0.0000000000	        0.0000000000	        0.0000000000	        0.0000000000	
        0.7175734482	        0.0306432535	       -0.0255229076	        0.0007800068	        0.0000000000	        0.0000000000	        0.0000000000	     -136.9140219585	      880.5041221460	       20.3990274368	        1.0301933492	        0.0000000000	       -0.0533081025	        0.0000000000	        0.0000000000	        0.0000000000	        0.0000000000	        0.0000000000	        0.0000000000	
        0.7301624561	        0.3628606886	       -0.2569200483	        0.0206207138	        0.0000000000	        0.0000000000	        0.0000000000	     -118.4287191165	      820.0794897691	       19.5817571090	        1.0339603971	        0.0000000000	       -0.0535928906	        0.0000000000	        0.0000000000	        0.0000000000	        0.0000000000	        0.0000000000	        0.0000000000	
        0.7427514639	       -2.4588996215	        1.5358882454	       -0.1730297614	        0.0000000000	        0.0000000000	        0.0000000000	     -104.6212919606	      768.3850624337	       18.1606692250	        1.0379076164	        0.0000000000	       -0.0536147253	        0.0000000000	        0.0000000000	        0.0000000000	        0.0000000000	        0.0000000000	        0.0000000000	
        0.7553404718	       -2.0415760479	        1.1660620397	       -0.1516819797	        0.0000000000	        0.0000000000	        0.0000000000	      -92.9253755953	      732.8085554639	       17.7140447579	        1.0423825099	        0.0000000000	       -0.0534400631	        0.0000000000	        0.0000000000	        0.0000000000	        0.0000000000	        0.0000000000	        0.0000000000	
        0.7679294797	       -1.6425469751	        0.8777965690	       -0.1271294087	        0.0000000000	        0.0000000000	        0.0000000000	      -83.2940813289	      706.5747894883	       18.5134987953	        1.0476467785	        0.0000000000	       -0.0530071264	        0.0000000000	        0.0000000000	        0.0000000000	        0.0000000000	        0.0000000000	        0.0000000000	
        0.7805184875	       -1.1280090032	        0.5750339330	       -0.0844447767	        0.0000000000	        0.0000000000	        0.0000000000	      -73.3952072041	      682.4017193313	       19.0644936564	        1.0528326733	        0.0000000000	       -0.0525890952	        0.0000000000	        0.0000000000	        0.0000000000	        0.0000000000	        0.0000000000	        0.0000000000	
        0.7931074954	       -0.7927147048	        0.3885719088	       -0.0591924535	        0.0000000000	        0.0000000000	        0.0000000000	      -63.6437105888	      658.5565340622	       19.9751828195	        1.0576541618	        0.0000000000	       -0.0522780780	        0.0000000000	        0.0000000000	        0.0000000000	        0.0000000000	        0.0000000000	        0.0000000000	
        0.8056965032	       -0.6136422629	        0.2910605553	       -0.0458563414	        0.0000000000	        0.0000000000	        0.0000000000	      -54.6464109495	      637.8709765885	       20.4318434727	        1.0623814738	        0.0000000000	       -0.0520553366	        0.0000000000	        0.0000000000	        0.0000000000	        0.0000000000	        0.0000000000	        0.0000000000	
        0.8182855111	       -0.5287177980	        0.2439591067	       -0.0395928381	        0.0000000000	        0.0000000000	        0.0000000000	      -46.8786990428	      620.9014569516	       20.8394689722	        1.0671820309	        0.0000000000	       -0.0518654390	        0.0000000000	        0.0000000000	        0.0000000000	        0.0000000000	        0.0000000000	        0.0000000000	
        0.8308745190	       -0.4997892363	        0.2253210625	       -0.0372778251	        0.0000000000	        0.0000000000	        0.0000000000	      -40.0636307646	      606.9313236906	       20.8445362662	        1.0720167608	        0.0000000000	       -0.0516872777	        0.0000000000	        0.0000000000	        0.0000000000	        0.0000000000	        0.0000000000	        0.0000000000	
        0.8434635268	       -0.5120142990	        0.2261360941	       -0.0378327844	        0.0000000000	        0.0000000000	        0.0000000000	      -33.7483944490	      596.7713405659	       20.7598614079	        1.0772419980	        0.0000000000	       -0.0514577241	        0.0000000000	        0.0000000000	        0.0000000000	        0.0000000000	        0.0000000000	        0.0000000000	
        0.8560525347	       -0.5718101466	        0.2476507821	       -0.0417809849	        0.0000000000	        0.0000000000	        0.0000000000	      -28.8733046850	      590.5174688184	       20.3846330979	        1.0830668635	        0.0000000000	       -0.0511246509	        0.0000000000	        0.0000000000	        0.0000000000	        0.0000000000	        0.0000000000	        0.0000000000	
        0.8686415426	       -0.6841300852	        0.2908013881	       -0.0489360922	        0.0000000000	        0.0000000000	        0.0000000000	      -25.1636591703	      587.1537887558	       19.7600923050	        1.0893174100	        0.0000000000	       -0.0506842691	        0.0000000000	        0.0000000000	        0.0000000000	        0.0000000000	        0.0000000000	        0.0000000000	
        0.8812305504	       -0.8507970262	        0.3554553898	       -0.0589212808	        0.0000000000	        0.0000000000	        0.0000000000	      -21.8226898096	      585.8262206613	       19.1090453320	        1.0958684759	        0.0000000000	       -0.0501454849	        0.0000000000	        0.0000000000	        0.0000000000	        0.0000000000	        0.0000000000	        0.0000000000	
        0.8938195583	       -1.0620164293	        0.4368827026	       -0.0706569370	        0.0000000000	        0.0000000000	        0.0000000000	      -18.8786617703	      585.4248228025	       18.6204429429	        1.1025559956	        0.0000000000	       -0.0495323700	        0.0000000000	        0.0000000000	        0.0000000000	        0.0000000000	        0.0000000000	        0.0000000000	
